# Blender 3.3.0
# www.blender.org
mtllib rock.mtl
o Cube
v 0.536341 0.556284 -1.335545
v 0.672753 1.985826 0.240769
v 1.547100 1.026774 -0.539430
v 0.352729 -0.855577 -0.347572
v 0.338408 -0.321334 -0.871067
v 1.477930 -0.479694 -0.164326
v 0.991239 1.067556 1.003163
v 0.388056 1.596591 0.950932
v 0.409953 1.091096 1.692057
v 1.482613 -0.483149 0.568396
v 0.333723 -0.329108 0.865709
v 0.376470 -0.929861 0.379058
v -0.391469 0.890303 -1.071255
v -1.279415 1.263375 -0.276537
v -0.556688 -0.694375 -1.347820
v -0.371084 -0.804080 -0.360901
v -1.336650 0.856702 0.268502
v -0.388805 0.229140 1.304196
v -0.885420 1.267216 0.807171
v -0.382172 -1.026570 0.948584
v -0.378876 -0.516734 1.518052
v -0.959869 -0.528403 0.987144
v -0.928582 0.255296 -0.889975
v -1.151270 0.537650 -0.172447
v -0.953330 0.578340 -0.908816
v -0.990358 0.043504 -0.534138
v -1.106472 -0.670360 -0.419616
v -0.820830 -0.642214 -0.962298
v -0.802346 -0.703534 -0.627725
v -1.043046 -0.541650 -0.586695
vn -0.0239 -0.9893 -0.1440
vn -0.9960 0.0646 -0.0620
vn 0.3420 -0.2654 0.9014
vn -0.3426 0.9140 0.2172
vn 0.9643 0.1287 0.2315
vn 0.1919 0.7187 -0.6684
vn 0.3297 -0.6562 -0.6787
vn 0.5652 0.6892 0.4534
vn 0.1176 -0.6200 0.7757
vn -0.9874 -0.1572 0.0185
vn -0.7497 -0.0425 0.6604
vn -0.5122 -0.6384 0.5745
vn -0.2283 -0.9694 -0.0902
vn 0.2950 -0.8642 -0.4075
vn 0.5726 -0.3286 -0.7511
vn -0.6620 0.1964 0.7233
vn 0.4502 -0.2949 0.8429
vn -0.4353 0.3526 -0.8284
vn -0.4584 0.4573 0.7621
vn 0.7438 0.5604 0.3642
vn 0.5965 -0.5419 0.5921
vn -0.4136 -0.9104 -0.0123
vn -0.0521 0.7869 -0.6148
vn 0.3537 -0.9337 -0.0566
vn 0.1172 -0.0927 -0.9888
vn -0.9715 -0.0873 -0.2206
vn -0.9572 -0.1186 -0.2639
vn -0.5012 -0.5831 -0.6394
vn -0.5679 -0.8146 -0.1179
vn -0.8978 0.0764 -0.4337
vn -0.9320 -0.0041 -0.3625
vn -0.6309 0.1223 -0.7661
vt 0.549787 0.424787
vt 0.700213 0.575213
vt 0.625000 0.424787
vt 0.549787 0.500000
vt 0.549787 0.575213
vt 0.299787 0.575213
vt 0.299787 0.500000
vt 0.450213 0.424787
vt 0.375000 0.575213
vt 0.450213 0.575213
vt 0.549787 0.750000
vt 0.549787 0.674787
vt 0.625000 0.825213
vt 0.700213 0.674787
vt 0.549787 0.825213
vt 0.375000 0.674787
vt 0.450213 0.674787
vt 0.450213 0.825213
vt 0.299787 0.750000
vt 0.299787 0.674787
vt 0.549787 0.250000
vt 0.549787 0.325213
vt 0.799787 0.575213
vt 0.625000 0.174787
vt 0.625000 0.325213
vt 0.200213 0.500000
vt 0.450213 0.325213
vt 0.200213 0.575213
vt 0.549787 0.075213
vt 0.549787 0.000000
vt 0.549787 0.924787
vt 0.799787 0.674787
vt 0.625000 0.075213
vt 0.625000 0.924787
vt 0.200213 0.674787
vt 0.450213 0.924787
vt 0.450213 0.000000
vt 0.200213 0.750000
vt 0.450213 0.075213
vt 0.125000 0.674787
vt 0.549787 0.200913
vt 0.533255 0.174787
vt 0.549787 0.227040
vt 0.549787 0.142295
vt 0.574063 0.174787
vt 0.549787 0.161623
vt 0.548934 0.174787
vt 0.125000 0.595897
vt 0.140167 0.575213
vt 0.450213 0.154103
vt 0.155400 0.544814
vt 0.450213 0.235586
vt 0.153072 0.575213
vt 0.131845 0.575213
vt 0.453099 0.174787
s 0
usemtl Material
f 16/28/1 4/6/1 12/20/1 20/35/1
f 19/33/2 14/24/2 25/45/2 24/44/2 17/29/2
f 11/18/3 9/15/3 18/31/3 21/36/3
f 2/2/4 14/23/4 19/32/4 8/14/4
f 6/10/5 3/5/5 7/12/5 10/17/5
f 1/1/6 2/3/6 3/4/6
f 4/6/7 5/7/7 6/9/7
f 7/11/8 8/13/8 9/15/8
f 10/16/9 11/19/9 12/20/9
f 22/39/10 17/29/10 24/44/10 27/50/10
f 17/29/11 18/30/11 19/33/11
f 20/35/12 21/38/12 22/40/12
f 29/53/13 28/51/13 15/26/13 16/28/13
f 4/6/14 16/28/14 15/26/14 5/7/14
f 3/5/15 6/10/15 5/8/15 1/1/15
f 21/37/16 18/30/16 17/29/16 22/39/16
f 9/15/17 11/18/17 10/17/17 7/12/17
f 13/21/18 23/41/18 25/45/18 14/24/18
f 8/13/19 19/34/19 18/31/19 9/15/19
f 2/2/20 8/14/20 7/12/20 3/5/20
f 20/35/21 12/20/21 11/19/21 21/38/21
f 16/28/22 20/35/22 22/40/22 27/48/22 29/53/22
f 14/25/23 2/3/23 1/1/23 13/22/23
f 12/20/24 4/6/24 6/10/24 10/17/24
f 15/27/25 13/22/25 1/1/25 5/8/25
f 23/42/26 26/47/26 25/46/26
f 26/47/27 24/44/27 25/46/27
f 27/49/28 30/54/28 29/53/28
f 30/54/29 28/51/29 29/53/29
f 27/50/30 24/44/30 26/47/30 30/55/30
f 30/55/31 26/47/31 23/43/31 28/52/31
f 13/22/32 15/27/32 28/52/32 23/43/32
